<svg width="282" height="398" viewBox="0 0 282 398" fill="none" xmlns="http://www.w3.org/2000/svg">
<path d="M124 69H101.9V74.2H124V69Z" fill="#C15A64"/>
<path d="M289.1 69H276.9V74.2H289.1V69Z" fill="#C15A64"/>
<path d="M260.9 69H249.7V74.2H260.9V69Z" fill="#C15A64"/>
<path d="M166.9 69H132.1V74.2H166.9V69Z" fill="#C15A64"/>
<path d="M44.5 69H8.19995V74.2H44.5V69Z" fill="#C15A64"/>
<path d="M193.2 69H182V74.2H193.2V69Z" fill="#C15A64"/>
<path d="M80.1 69H66.2V74.2H80.1V69Z" fill="#C15A64"/>
<path d="M234.5 69H209.3V74.2H234.5V69Z" fill="#C15A64"/>
<path d="M80.1 60.6H66.2V63.6H80.1V60.6Z" fill="#C15A64"/>
<path d="M234.5 60.6H209.3V63.6H234.5V60.6Z" fill="#C15A64"/>
<path d="M124 60.6H101.9V63.6H124V60.6Z" fill="#C15A64"/>
<path d="M44.5 63.5V60.6H35.4V59.5H10.1V48.9H8.19995V63.5H44.5Z" fill="#C15A64"/>
<path d="M166.9 60.6H132.1V63.6H166.9V60.6Z" fill="#C15A64"/>
<path d="M289.1 60.6H276.9V63.6H289.1V60.6Z" fill="#C15A64"/>
<path d="M260.9 60.6H249.7V63.6H260.9V60.6Z" fill="#C15A64"/>
<path d="M193.2 60.6H182V63.6H193.2V60.6Z" fill="#C15A64"/>
<path d="M44.5 63.5H8.19995V69H44.5V63.5Z" fill="#C15A64"/>
<path d="M289.1 63.5H276.9V69H289.1V63.5Z" fill="#C15A64"/>
<path d="M166.9 63.5H132.1V69H166.9V63.5Z" fill="#C15A64"/>
<path d="M260.9 63.5H249.7V69H260.9V63.5Z" fill="#C15A64"/>
<path d="M234.5 63.5H209.3V69H234.5V63.5Z" fill="#C15A64"/>
<path d="M80.1 63.5H66.2V69H80.1V63.5Z" fill="#C15A64"/>
<path d="M124 63.5H101.9V69H124V63.5Z" fill="#C15A64"/>
<path d="M193.2 63.5H182V69H193.2V63.5Z" fill="#C15A64"/>
<path d="M260.9 83.5H249.7V94.2H260.9V83.5Z" fill="#C15A64"/>
<path d="M44.5 83.5H8.19995V94.2H44.5V83.5Z" fill="#C15A64"/>
<path d="M234.5 83.5H209.3V94.2H234.5V83.5Z" fill="#C15A64"/>
<path d="M80.1 83.5H66.2V94.2H80.1V83.5Z" fill="#C15A64"/>
<path d="M166.9 83.5H132.1V94.2H166.9V83.5Z" fill="#C15A64"/>
<path d="M193.2 83.5H182V94.2H193.2V83.5Z" fill="#C15A64"/>
<path d="M289.1 83.5H276.9V94.2H289.1V83.5Z" fill="#C15A64"/>
<path d="M124 83.5H101.9V94.2H124V83.5Z" fill="#C15A64"/>
<path d="M193.2 103.5H182V114.2H193.2V103.5Z" fill="#C15A64"/>
<path d="M80.1 103.5H66.2V114.2H80.1V103.5Z" fill="#C15A64"/>
<path d="M234.5 103.5H209.3V114.2H234.5V103.5Z" fill="#C15A64"/>
<path d="M289.1 103.5H276.9V114.2H289.1V103.5Z" fill="#C15A64"/>
<path d="M260.9 103.5H249.7V114.2H260.9V103.5Z" fill="#C15A64"/>
<path d="M124 103.5H101.9V114.2H124V103.5Z" fill="#C15A64"/>
<path d="M34.7 114.2H44.5V103.5H8.19995V111.4H34.7V114.2Z" fill="#C15A64"/>
<path d="M166.9 103.5H132.1V114.2H166.9V103.5Z" fill="#C15A64"/>
<path d="M44.5 123.5H34.7V127.5H8.19995V134.2H44.5V123.5Z" fill="#C15A64"/>
<path d="M80.1 123.5H66.2V134.2H80.1V123.5Z" fill="#C15A64"/>
<path d="M260.9 123.5H249.7V134.2H260.9V123.5Z" fill="#C15A64"/>
<path d="M289.1 123.5H276.9V134.2H289.1V123.5Z" fill="#C15A64"/>
<path d="M193.2 123.5H182V134.2H193.2V123.5Z" fill="#C15A64"/>
<path d="M144.3 131.3H163.4V134.2H166.9V123.5H132.1V134.2H144.3V131.3Z" fill="#C15A64"/>
<path d="M124 123.5H101.9V134.2H124V123.5Z" fill="#C15A64"/>
<path d="M234.5 123.5H209.3V134.2H234.5V123.5Z" fill="#C15A64"/>
<path d="M234.5 143.5H209.3V154.2H234.5V143.5Z" fill="#C15A64"/>
<path d="M124 143.5H101.9V154.2H124V143.5Z" fill="#C15A64"/>
<path d="M44.5 143.5H8.19995V154.2H44.5V143.5Z" fill="#C15A64"/>
<path d="M289.1 143.5H276.9V154.2H289.1V143.5Z" fill="#C15A64"/>
<path d="M193.2 143.5H182V154.2H193.2V143.5Z" fill="#C15A64"/>
<path d="M166.9 143.5H163.4V151.9H144.3V143.5H132.1V154.2H166.9V143.5Z" fill="#C15A64"/>
<path d="M260.9 143.5H249.7V154.2H260.9V143.5Z" fill="#C15A64"/>
<path d="M80.1 143.5H66.2V154.2H80.1V143.5Z" fill="#C15A64"/>
<path d="M260.9 163.4H249.7V174.1H260.9V163.4Z" fill="#C15A64"/>
<path d="M193.2 163.4H182V174.1H193.2V163.4Z" fill="#C15A64"/>
<path d="M44.5 163.4H8.19995V174.1H44.5V163.4Z" fill="#C15A64"/>
<path d="M124 163.4H101.9V174.1H124V163.4Z" fill="#C15A64"/>
<path d="M166.9 163.4H132.1V174.1H166.9V163.4Z" fill="#C15A64"/>
<path d="M289.1 163.4H276.9V174.1H289.1V163.4Z" fill="#C15A64"/>
<path d="M80.1 163.4H66.2V174.1H80.1V163.4Z" fill="#C15A64"/>
<path d="M234.5 163.4H209.3V174.1H234.5V163.4Z" fill="#C15A64"/>
<path d="M234.5 183.4H209.3V194.1H234.5V183.4Z" fill="#C15A64"/>
<path d="M166.9 183.4H132.1V194.1H166.9V183.4Z" fill="#C15A64"/>
<path d="M80.1 183.4H66.2V194.1H80.1V183.4Z" fill="#C15A64"/>
<path d="M260.9 183.4H249.7V194.1H260.9V183.4Z" fill="#C15A64"/>
<path d="M193.2 183.4H182V194.1H193.2V183.4Z" fill="#C15A64"/>
<path d="M44.5 183.4H8.19995V194.1H44.5V183.4Z" fill="#C15A64"/>
<path d="M124 183.4H101.9V194.1H124V183.4Z" fill="#C15A64"/>
<path d="M289.1 183.4H276.9V194.1H289.1V183.4Z" fill="#C15A64"/>
<path d="M193.2 203.4H182V214.1H193.2V203.4Z" fill="#C15A64"/>
<path d="M234.5 203.4H209.3V214.1H234.5V203.4Z" fill="#C15A64"/>
<path d="M260.9 203.4H249.7V214.1H260.9V203.4Z" fill="#C15A64"/>
<path d="M124 203.4H101.9V214.1H124V203.4Z" fill="#C15A64"/>
<path d="M73 214.1H80.1V203.4H66.2V208.4H73V214.1Z" fill="#C15A64"/>
<path d="M44.5 203.4H8.19995V214.1H44.5V203.4Z" fill="#C15A64"/>
<path d="M166.9 203.4H132.1V214.1H166.9V203.4Z" fill="#C15A64"/>
<path d="M289.1 203.4H276.9V214.1H289.1V203.4Z" fill="#C15A64"/>
<path d="M124 224H101.9V234.7H124V224Z" fill="#C15A64"/>
<path d="M234.5 224H209.3V234.7H234.5V224Z" fill="#C15A64"/>
<path d="M289.1 224H276.9V234.7H289.1V224Z" fill="#C15A64"/>
<path d="M193.2 224H182V234.7H193.2V224Z" fill="#C15A64"/>
<path d="M38.4 234.7H44.5V224H8.19995V232.1H38.4V234.7Z" fill="#C15A64"/>
<path d="M80.1 224H73V232.9H66.2V234.7H80.1V224Z" fill="#C15A64"/>
<path d="M260.9 224H249.7V234.7H260.9V224Z" fill="#C15A64"/>
<path d="M166.9 224H132.1V234.7H166.9V224Z" fill="#C15A64"/>
<path d="M289.1 244H276.9V254.7H289.1V244Z" fill="#C15A64"/>
<path d="M234.5 244H209.3V254.7H234.5V244Z" fill="#C15A64"/>
<path d="M260.9 244H249.7V254.7H260.9V244Z" fill="#C15A64"/>
<path d="M44.5 244H38.4V248.2H8.19995V254.7H44.5V244Z" fill="#C15A64"/>
<path d="M124 244H101.9V254.7H124V244Z" fill="#C15A64"/>
<path d="M166.9 244H132.1V254.7H166.9V244Z" fill="#C15A64"/>
<path d="M193.2 244H182V254.7H193.2V244Z" fill="#C15A64"/>
<path d="M80.1 244H66.2V254.7H80.1V244Z" fill="#C15A64"/>
<path d="M124 263.9H101.9V274.6H124V263.9Z" fill="#C15A64"/>
<path d="M44.5 263.9H8.19995V274.6H44.5V263.9Z" fill="#C15A64"/>
<path d="M193.2 263.9H182V274.6H193.2V263.9Z" fill="#C15A64"/>
<path d="M80.1 263.9H66.2V274.6H80.1V263.9Z" fill="#C15A64"/>
<path d="M166.9 263.9H132.1V274.6H166.9V263.9Z" fill="#C15A64"/>
<path d="M234.5 263.9H209.3V274.6H234.5V263.9Z" fill="#C15A64"/>
<path d="M260.9 263.9H249.7V274.6H260.9V263.9Z" fill="#C15A64"/>
<path d="M289.1 263.9H276.9V274.6H289.1V263.9Z" fill="#C15A64"/>
<path d="M124 283.9H101.9V294.6H124V283.9Z" fill="#C15A64"/>
<path d="M80.1 283.9H66.2V294.6H80.1V283.9Z" fill="#C15A64"/>
<path d="M193.2 283.9H182V294.6H193.2V283.9Z" fill="#C15A64"/>
<path d="M234.5 283.9H209.3V294.6H234.5V283.9Z" fill="#C15A64"/>
<path d="M289.1 283.9H276.9V294.6H289.1V283.9Z" fill="#C15A64"/>
<path d="M260.9 283.9H249.7V294.6H260.9V283.9Z" fill="#C15A64"/>
<path d="M44.5 283.9H8.19995V294.6H44.5V283.9Z" fill="#C15A64"/>
<path d="M166.9 283.9H132.1V294.6H166.9V283.9Z" fill="#C15A64"/>
<path d="M234.5 303.9H209.3V314.6H234.5V303.9Z" fill="#C15A64"/>
<path d="M166.9 303.9H132.1V314.6H166.9V303.9Z" fill="#C15A64"/>
<path d="M80.1 303.9H66.2V314.6H80.1V303.9Z" fill="#C15A64"/>
<path d="M289.1 303.9H276.9V314.6H289.1V303.9Z" fill="#C15A64"/>
<path d="M124 303.9H101.9V314.6H124V303.9Z" fill="#C15A64"/>
<path d="M193.2 303.9H182V314.6H193.2V303.9Z" fill="#C15A64"/>
<path d="M260.9 303.9H249.7V314.6H260.9V303.9Z" fill="#C15A64"/>
<path d="M44.5 303.9H8.19995V314.6H44.5V303.9Z" fill="#C15A64"/>
<path d="M234.5 323.9H209.3V334.6H234.5V323.9Z" fill="#C15A64"/>
<path d="M44.5 323.9H8.19995V334.6H44.5V323.9Z" fill="#C15A64"/>
<path d="M124 323.9H101.9V334.6H124V323.9Z" fill="#C15A64"/>
<path d="M260.9 323.9H249.7V334.6H260.9V323.9Z" fill="#C15A64"/>
<path d="M193.2 323.9H182V334.6H193.2V323.9Z" fill="#C15A64"/>
<path d="M166.9 323.9H132.1V334.6H166.9V323.9Z" fill="#C15A64"/>
<path d="M80.1 323.9H66.2V334.6H80.1V323.9Z" fill="#C15A64"/>
<path d="M289.1 323.9H276.9V334.6H289.1V323.9Z" fill="#C15A64"/>
<path d="M124 343.9H101.9V354.6H124V343.9Z" fill="#C15A64"/>
<path d="M166.9 343.9H132.1V354.6H166.9V343.9Z" fill="#C15A64"/>
<path d="M193.2 343.9H182V354.6H193.2V343.9Z" fill="#C15A64"/>
<path d="M260.9 343.9H249.7V354.6H260.9V343.9Z" fill="#C15A64"/>
<path d="M234.5 343.9H209.3V354.6H234.5V343.9Z" fill="#C15A64"/>
<path d="M44.5 343.9H8.19995V354.6H44.5V343.9Z" fill="#C15A64"/>
<path d="M80.1 343.9H66.2V354.6H80.1V343.9Z" fill="#C15A64"/>
<path d="M289.1 343.9H276.9V349.1H289.1V343.9Z" fill="#C15A64"/>
<path d="M260.9 363.8H249.7V370.4H260.9V363.8Z" fill="#C15A64"/>
<path d="M80.1 363.8H66.2V370.4H80.1V363.8Z" fill="#C15A64"/>
<path d="M124 363.8H101.9V370.4H124V363.8Z" fill="#C15A64"/>
<path d="M234.5 363.8H209.3V370.4H234.5V363.8Z" fill="#C15A64"/>
<path d="M166.9 363.8H132.1V370.4H166.9V363.8Z" fill="#C15A64"/>
<path d="M193.2 363.8H182V370.4H193.2V363.8Z" fill="#C15A64"/>
<path d="M44.5 363.8H8.19995V370.4H44.5V363.8Z" fill="#C15A64"/>
<path d="M5.30005 234.7H0.0999756V244H5.30005V234.7Z" fill="#C15A64"/>
<path d="M8.19995 214.1H0.0999756V224H8.19995V214.1Z" fill="#C15A64"/>
<path d="M8.19995 334.6H0.0999756V343.9H8.19995V334.6Z" fill="#C15A64"/>
<path d="M8.19995 354.6H0.0999756V363.9H8.19995V354.6Z" fill="#C15A64"/>
<path d="M8.19995 314.6H0.0999756V323.9H8.19995V314.6Z" fill="#C15A64"/>
<path d="M8.19995 274.6H0.0999756V283.9H8.19995V274.6Z" fill="#C15A64"/>
<path d="M8.19995 254.7H0.0999756V264H8.19995V254.7Z" fill="#C15A64"/>
<path d="M8.19995 294.6H0.0999756V303.9H8.19995V294.6Z" fill="#C15A64"/>
<path d="M8.19995 174.1H0.0999756V183.4H8.19995V174.1Z" fill="#C15A64"/>
<path d="M8.19995 134.2H0.0999756V143.5H8.19995V134.2Z" fill="#C15A64"/>
<path d="M8.19995 74.2H0.0999756V83.5H8.19995V74.2Z" fill="#C15A64"/>
<path d="M8.19995 94.2H0.0999756V103.5H8.19995V94.2Z" fill="#C15A64"/>
<path d="M3.09998 114.2H0.0999756V123.5H3.09998V114.2Z" fill="#C15A64"/>
<path d="M8.19995 154.2H0.0999756V163.5H8.19995V154.2Z" fill="#C15A64"/>
<path d="M8.19995 194.1H0.0999756V203.4H8.19995V194.1Z" fill="#C15A64"/>
<path d="M8.19995 0.5H0.0999756V48.9H8.19995V0.5Z" fill="#C15A64"/>
<path d="M8.19995 69H0.0999756V74.2H8.19995V69Z" fill="#C15A64"/>
<path d="M8.19995 48.9H0.0999756V63.5H8.19995V48.9Z" fill="#C15A64"/>
<path d="M8.19995 63.5H0.0999756V69H8.19995V63.5Z" fill="#C15A64"/>
<path d="M8.19995 83.5H0.0999756V94.2H8.19995V83.5Z" fill="#C15A64"/>
<path d="M3.09998 111.4H8.19995V103.5H0.0999756V114.2H3.09998V111.4Z" fill="#C15A64"/>
<path d="M8.19995 127.5H3.09998V123.5H0.0999756V134.2H8.19995V127.5Z" fill="#C15A64"/>
<path d="M8.19995 143.5H0.0999756V154.2H8.19995V143.5Z" fill="#C15A64"/>
<path d="M8.19995 163.4H0.0999756V174.1H8.19995V163.4Z" fill="#C15A64"/>
<path d="M8.19995 183.4H0.0999756V194.1H8.19995V183.4Z" fill="#C15A64"/>
<path d="M8.19995 203.4H0.0999756V214.1H8.19995V203.4Z" fill="#C15A64"/>
<path d="M5.30005 232.1H8.19995V224H0.0999756V234.7H5.30005V232.1Z" fill="#C15A64"/>
<path d="M8.19995 248.2H5.30005V244H0.0999756V254.7H8.19995V248.2Z" fill="#C15A64"/>
<path d="M8.19995 263.9H0.0999756V274.6H8.19995V263.9Z" fill="#C15A64"/>
<path d="M8.19995 283.9H0.0999756V294.6H8.19995V283.9Z" fill="#C15A64"/>
<path d="M8.19995 303.9H0.0999756V314.6H8.19995V303.9Z" fill="#C15A64"/>
<path d="M8.19995 323.9H0.0999756V334.6H8.19995V323.9Z" fill="#C15A64"/>
<path d="M8.19995 343.9H0.0999756V354.6H8.19995V343.9Z" fill="#C15A64"/>
<path d="M8.19995 363.8H0.0999756V370.4H8.19995V363.8Z" fill="#C15A64"/>
<path d="M63.6 7.29999H66.2V0.5H44.5V21.6H63.6V7.29999Z" fill="#C15A64"/>
<path d="M66.2 174.1H44.5V183.4H66.2V174.1Z" fill="#C15A64"/>
<path d="M66.2 254.7H44.5V264H66.2V254.7Z" fill="#C15A64"/>
<path d="M60.5 214.1H44.5V224H60.5V214.1Z" fill="#C15A64"/>
<path d="M66.2 234.7H44.5V244H66.2V234.7Z" fill="#C15A64"/>
<path d="M66.2 194.1H44.5V203.4H66.2V194.1Z" fill="#C15A64"/>
<path d="M66.2 294.6H44.5V303.9H66.2V294.6Z" fill="#C15A64"/>
<path d="M66.2 354.6H44.5V363.9H66.2V354.6Z" fill="#C15A64"/>
<path d="M66.2 314.6H44.5V323.9H66.2V314.6Z" fill="#C15A64"/>
<path d="M66.2 274.6H44.5V283.9H66.2V274.6Z" fill="#C15A64"/>
<path d="M66.2 154.2H44.5V163.5H66.2V154.2Z" fill="#C15A64"/>
<path d="M66.2 114.2H44.5V123.5H66.2V114.2Z" fill="#C15A64"/>
<path d="M66.2 74.2H44.5V83.5H66.2V74.2Z" fill="#C15A64"/>
<path d="M66.2 94.2H44.5V103.5H66.2V94.2Z" fill="#C15A64"/>
<path d="M66.2 334.6H44.5V343.9H66.2V334.6Z" fill="#C15A64"/>
<path d="M66.2 134.2H44.5V143.5H66.2V134.2Z" fill="#C15A64"/>
<path d="M66.2 69H44.5V74.2H66.2V69Z" fill="#C15A64"/>
<path d="M66.2 60.6H44.5V63.6H66.2V60.6Z" fill="#C15A64"/>
<path d="M66.2 63.5H44.5V69H66.2V63.5Z" fill="#C15A64"/>
<path d="M66.2 83.5H44.5V94.2H66.2V83.5Z" fill="#C15A64"/>
<path d="M66.2 103.5H44.5V114.2H66.2V103.5Z" fill="#C15A64"/>
<path d="M66.2 123.5H44.5V134.2H66.2V123.5Z" fill="#C15A64"/>
<path d="M66.2 143.5H44.5V154.2H66.2V143.5Z" fill="#C15A64"/>
<path d="M66.2 163.4H44.5V174.1H66.2V163.4Z" fill="#C15A64"/>
<path d="M66.2 183.4H44.5V194.1H66.2V183.4Z" fill="#C15A64"/>
<path d="M60.5 208.4H66.2V203.4H44.5V214.1H60.5V208.4Z" fill="#C15A64"/>
<path d="M66.2 232.9H60.5V224H44.5V234.7H66.2V232.9Z" fill="#C15A64"/>
<path d="M66.2 244H44.5V254.7H66.2V244Z" fill="#C15A64"/>
<path d="M66.2 263.9H44.5V274.6H66.2V263.9Z" fill="#C15A64"/>
<path d="M66.2 283.9H44.5V294.6H66.2V283.9Z" fill="#C15A64"/>
<path d="M66.2 303.9H44.5V314.6H66.2V303.9Z" fill="#C15A64"/>
<path d="M66.2 323.9H44.5V334.6H66.2V323.9Z" fill="#C15A64"/>
<path d="M66.2 343.9H44.5V354.6H66.2V343.9Z" fill="#C15A64"/>
<path d="M66.2 363.8H44.5V370.4H66.2V363.8Z" fill="#C15A64"/>
<path d="M101.8 354.6H80.1V363.9H101.8V354.6Z" fill="#C15A64"/>
<path d="M101.8 254.7H80.1V264H101.8V254.7Z" fill="#C15A64"/>
<path d="M101.8 234.7H80.1V244H101.8V234.7Z" fill="#C15A64"/>
<path d="M101.8 214.1H80.1V224H101.8V214.1Z" fill="#C15A64"/>
<path d="M101.8 194.1H80.1V203.4H101.8V194.1Z" fill="#C15A64"/>
<path d="M101.8 334.6H80.1V343.9H101.8V334.6Z" fill="#C15A64"/>
<path d="M101.8 174.1H80.1V183.4H101.8V174.1Z" fill="#C15A64"/>
<path d="M101.8 314.6H80.1V323.9H101.8V314.6Z" fill="#C15A64"/>
<path d="M101.8 274.6H80.1V283.9H101.8V274.6Z" fill="#C15A64"/>
<path d="M101.8 294.6H80.1V303.9H101.8V294.6Z" fill="#C15A64"/>
<path d="M101.8 74.2H80.1V83.5H101.8V74.2Z" fill="#C15A64"/>
<path d="M101.8 154.2H80.1V163.5H101.8V154.2Z" fill="#C15A64"/>
<path d="M101.8 94.2H80.1V103.5H101.8V94.2Z" fill="#C15A64"/>
<path d="M101.8 134.2H80.1V143.5H101.8V134.2Z" fill="#C15A64"/>
<path d="M101.8 114.2H80.1V123.5H101.8V114.2Z" fill="#C15A64"/>
<path d="M95 6.79999H101.9V0.5H80.1V21.6H95V6.79999Z" fill="#C15A64"/>
<path d="M101.8 69H80.1V74.2H101.8V69Z" fill="#C15A64"/>
<path d="M101.8 60.6H80.1V63.6H101.8V60.6Z" fill="#C15A64"/>
<path d="M101.8 63.5H80.1V69H101.8V63.5Z" fill="#C15A64"/>
<path d="M101.8 83.5H80.1V94.2H101.8V83.5Z" fill="#C15A64"/>
<path d="M101.8 103.5H80.1V114.2H101.8V103.5Z" fill="#C15A64"/>
<path d="M101.8 123.5H80.1V134.2H101.8V123.5Z" fill="#C15A64"/>
<path d="M101.8 143.5H80.1V154.2H101.8V143.5Z" fill="#C15A64"/>
<path d="M101.8 163.4H80.1V174.1H101.8V163.4Z" fill="#C15A64"/>
<path d="M101.8 183.4H80.1V194.1H101.8V183.4Z" fill="#C15A64"/>
<path d="M101.8 203.4H80.1V214.1H101.8V203.4Z" fill="#C15A64"/>
<path d="M101.8 224H80.1V234.7H101.8V224Z" fill="#C15A64"/>
<path d="M101.8 244H80.1V254.7H101.8V244Z" fill="#C15A64"/>
<path d="M101.8 263.9H80.1V274.6H101.8V263.9Z" fill="#C15A64"/>
<path d="M101.8 283.9H80.1V294.6H101.8V283.9Z" fill="#C15A64"/>
<path d="M101.8 303.9H80.1V314.6H101.8V303.9Z" fill="#C15A64"/>
<path d="M101.8 323.9H80.1V334.6H101.8V323.9Z" fill="#C15A64"/>
<path d="M101.8 343.9H80.1V354.6H101.8V343.9Z" fill="#C15A64"/>
<path d="M101.8 363.8H80.1V370.4H101.8V363.8Z" fill="#C15A64"/>
<path d="M132.1 174.1H124V183.4H132.1V174.1Z" fill="#C15A64"/>
<path d="M132.1 154.2H124V163.5H132.1V154.2Z" fill="#C15A64"/>
<path d="M132.1 194.1H124V203.4H132.1V194.1Z" fill="#C15A64"/>
<path d="M132.1 354.6H124V363.9H132.1V354.6Z" fill="#C15A64"/>
<path d="M132.1 314.6H124V323.9H132.1V314.6Z" fill="#C15A64"/>
<path d="M132.1 114.2H124V123.5H132.1V114.2Z" fill="#C15A64"/>
<path d="M132.1 134.2H124V143.5H132.1V134.2Z" fill="#C15A64"/>
<path d="M132.1 294.6H124V303.9H132.1V294.6Z" fill="#C15A64"/>
<path d="M132.1 0.5H124V6.79999H132.1V0.5Z" fill="#C15A64"/>
<path d="M132.1 94.2H124V103.5H132.1V94.2Z" fill="#C15A64"/>
<path d="M132.1 254.7H124V264H132.1V254.7Z" fill="#C15A64"/>
<path d="M132.1 334.6H124V343.9H132.1V334.6Z" fill="#C15A64"/>
<path d="M132.1 74.2H124V83.5H132.1V74.2Z" fill="#C15A64"/>
<path d="M132.1 234.7H124V244H132.1V234.7Z" fill="#C15A64"/>
<path d="M132.1 274.6H124V283.9H132.1V274.6Z" fill="#C15A64"/>
<path d="M132.1 214.1H124V224H132.1V214.1Z" fill="#C15A64"/>
<path d="M132.1 69H124V74.2H132.1V69Z" fill="#C15A64"/>
<path d="M132.1 60.6H124V63.6H132.1V60.6Z" fill="#C15A64"/>
<path d="M132.1 63.5H124V69H132.1V63.5Z" fill="#C15A64"/>
<path d="M132.1 83.5H124V94.2H132.1V83.5Z" fill="#C15A64"/>
<path d="M132.1 103.5H124V114.2H132.1V103.5Z" fill="#C15A64"/>
<path d="M132.1 123.5H124V134.2H132.1V123.5Z" fill="#C15A64"/>
<path d="M132.1 143.5H124V154.2H132.1V143.5Z" fill="#C15A64"/>
<path d="M132.1 163.4H124V174.1H132.1V163.4Z" fill="#C15A64"/>
<path d="M132.1 183.4H124V194.1H132.1V183.4Z" fill="#C15A64"/>
<path d="M132.1 203.4H124V214.1H132.1V203.4Z" fill="#C15A64"/>
<path d="M132.1 224H124V234.7H132.1V224Z" fill="#C15A64"/>
<path d="M132.1 244H124V254.7H132.1V244Z" fill="#C15A64"/>
<path d="M132.1 263.9H124V274.6H132.1V263.9Z" fill="#C15A64"/>
<path d="M132.1 283.9H124V294.6H132.1V283.9Z" fill="#C15A64"/>
<path d="M132.1 303.9H124V314.6H132.1V303.9Z" fill="#C15A64"/>
<path d="M132.1 323.9H124V334.6H132.1V323.9Z" fill="#C15A64"/>
<path d="M132.1 343.9H124V354.6H132.1V343.9Z" fill="#C15A64"/>
<path d="M132.1 363.8H124V370.4H132.1V363.8Z" fill="#C15A64"/>
<path d="M182.1 274.6H166.9V283.9H182.1V274.6Z" fill="#C15A64"/>
<path d="M182.1 234.7H166.9V244H182.1V234.7Z" fill="#C15A64"/>
<path d="M182.1 74.2H166.9V83.5H182.1V74.2Z" fill="#C15A64"/>
<path d="M182.1 254.7H166.9V264H182.1V254.7Z" fill="#C15A64"/>
<path d="M182.1 174.1H166.9V183.4H182.1V174.1Z" fill="#C15A64"/>
<path d="M182.1 214.1H166.9V224H182.1V214.1Z" fill="#C15A64"/>
<path d="M182.1 334.6H166.9V343.9H182.1V334.6Z" fill="#C15A64"/>
<path d="M182.1 154.2H166.9V163.5H182.1V154.2Z" fill="#C15A64"/>
<path d="M182.1 194.1H166.9V203.4H182.1V194.1Z" fill="#C15A64"/>
<path d="M182.1 354.6H166.9V363.9H182.1V354.6Z" fill="#C15A64"/>
<path d="M182.1 0.5H166.9V6.79999H182.1V0.5Z" fill="#C15A64"/>
<path d="M182.1 94.2H166.9V103.5H182.1V94.2Z" fill="#C15A64"/>
<path d="M182.1 114.2H166.9V123.5H182.1V114.2Z" fill="#C15A64"/>
<path d="M182.1 314.6H166.9V323.9H182.1V314.6Z" fill="#C15A64"/>
<path d="M182.1 294.6H166.9V303.9H182.1V294.6Z" fill="#C15A64"/>
<path d="M182.1 134.2H166.9V143.5H182.1V134.2Z" fill="#C15A64"/>
<path d="M182.1 69H166.9V74.2H182.1V69Z" fill="#C15A64"/>
<path d="M182.1 60.6H166.9V63.6H182.1V60.6Z" fill="#C15A64"/>
<path d="M182.1 63.5H166.9V69H182.1V63.5Z" fill="#C15A64"/>
<path d="M182.1 83.5H166.9V94.2H182.1V83.5Z" fill="#C15A64"/>
<path d="M182.1 103.5H166.9V114.2H182.1V103.5Z" fill="#C15A64"/>
<path d="M182.1 123.5H166.9V134.2H182.1V123.5Z" fill="#C15A64"/>
<path d="M182.1 143.5H166.9V154.2H182.1V143.5Z" fill="#C15A64"/>
<path d="M182.1 163.4H166.9V174.1H182.1V163.4Z" fill="#C15A64"/>
<path d="M182.1 183.4H166.9V194.1H182.1V183.4Z" fill="#C15A64"/>
<path d="M182.1 203.4H166.9V214.1H182.1V203.4Z" fill="#C15A64"/>
<path d="M182.1 224H166.9V234.7H182.1V224Z" fill="#C15A64"/>
<path d="M182.1 244H166.9V254.7H182.1V244Z" fill="#C15A64"/>
<path d="M182.1 263.9H166.9V274.6H182.1V263.9Z" fill="#C15A64"/>
<path d="M182.1 283.9H166.9V294.6H182.1V283.9Z" fill="#C15A64"/>
<path d="M182.1 303.9H166.9V314.6H182.1V303.9Z" fill="#C15A64"/>
<path d="M182.1 323.9H166.9V334.6H182.1V323.9Z" fill="#C15A64"/>
<path d="M182.1 343.9H166.9V354.6H182.1V343.9Z" fill="#C15A64"/>
<path d="M182.1 363.8H166.9V370.4H182.1V363.8Z" fill="#C15A64"/>
<path d="M209.3 0.5H193.2V6.79999H209.3V0.5Z" fill="#C15A64"/>
<path d="M209.3 334.6H193.2V343.9H209.3V334.6Z" fill="#C15A64"/>
<path d="M209.3 74.2H193.2V83.5H209.3V74.2Z" fill="#C15A64"/>
<path d="M209.3 134.2H193.2V143.5H209.3V134.2Z" fill="#C15A64"/>
<path d="M209.3 274.6H193.2V283.9H209.3V274.6Z" fill="#C15A64"/>
<path d="M209.3 234.7H193.2V244H209.3V234.7Z" fill="#C15A64"/>
<path d="M209.3 354.6H193.2V363.9H209.3V354.6Z" fill="#C15A64"/>
<path d="M209.3 294.6H193.2V303.9H209.3V294.6Z" fill="#C15A64"/>
<path d="M209.3 94.2H193.2V103.5H209.3V94.2Z" fill="#C15A64"/>
<path d="M209.3 114.2H193.2V123.5H209.3V114.2Z" fill="#C15A64"/>
<path d="M209.3 254.7H193.2V264H209.3V254.7Z" fill="#C15A64"/>
<path d="M209.3 154.2H193.2V163.5H209.3V154.2Z" fill="#C15A64"/>
<path d="M209.3 174.1H193.2V183.4H209.3V174.1Z" fill="#C15A64"/>
<path d="M209.3 194.1H193.2V203.4H209.3V194.1Z" fill="#C15A64"/>
<path d="M209.3 314.6H193.2V323.9H209.3V314.6Z" fill="#C15A64"/>
<path d="M209.3 214.1H193.2V224H209.3V214.1Z" fill="#C15A64"/>
<path d="M209.3 69H193.2V74.2H209.3V69Z" fill="#C15A64"/>
<path d="M209.3 60.6H193.2V63.6H209.3V60.6Z" fill="#C15A64"/>
<path d="M209.3 63.5H193.2V69H209.3V63.5Z" fill="#C15A64"/>
<path d="M209.3 83.5H193.2V94.2H209.3V83.5Z" fill="#C15A64"/>
<path d="M209.3 103.5H193.2V114.2H209.3V103.5Z" fill="#C15A64"/>
<path d="M209.3 123.5H193.2V134.2H209.3V123.5Z" fill="#C15A64"/>
<path d="M209.3 143.5H193.2V154.2H209.3V143.5Z" fill="#C15A64"/>
<path d="M209.3 163.4H193.2V174.1H209.3V163.4Z" fill="#C15A64"/>
<path d="M209.3 183.4H193.2V194.1H209.3V183.4Z" fill="#C15A64"/>
<path d="M209.3 203.4H193.2V214.1H209.3V203.4Z" fill="#C15A64"/>
<path d="M209.3 224H193.2V234.7H209.3V224Z" fill="#C15A64"/>
<path d="M209.3 244H193.2V254.7H209.3V244Z" fill="#C15A64"/>
<path d="M209.3 263.9H193.2V274.6H209.3V263.9Z" fill="#C15A64"/>
<path d="M209.3 283.9H193.2V294.6H209.3V283.9Z" fill="#C15A64"/>
<path d="M209.3 303.9H193.2V314.6H209.3V303.9Z" fill="#C15A64"/>
<path d="M209.3 323.9H193.2V334.6H209.3V323.9Z" fill="#C15A64"/>
<path d="M209.3 343.9H193.2V354.6H209.3V343.9Z" fill="#C15A64"/>
<path d="M209.3 363.8H193.2V370.4H209.3V363.8Z" fill="#C15A64"/>
<path d="M249.7 154.2H234.5V163.5H249.7V154.2Z" fill="#C15A64"/>
<path d="M249.7 214.1H234.5V224H249.7V214.1Z" fill="#C15A64"/>
<path d="M249.7 234.7H234.5V244H249.7V234.7Z" fill="#C15A64"/>
<path d="M249.7 194.1H234.5V203.4H249.7V194.1Z" fill="#C15A64"/>
<path d="M249.7 114.2H234.5V123.5H249.7V114.2Z" fill="#C15A64"/>
<path d="M249.7 174.1H234.5V183.4H249.7V174.1Z" fill="#C15A64"/>
<path d="M249.7 74.2H234.5V83.5H249.7V74.2Z" fill="#C15A64"/>
<path d="M249.7 94.2H234.5V103.5H249.7V94.2Z" fill="#C15A64"/>
<path d="M249.7 254.7H234.5V264H249.7V254.7Z" fill="#C15A64"/>
<path d="M249.7 334.6H234.5V343.9H249.7V334.6Z" fill="#C15A64"/>
<path d="M249.7 354.6H234.5V363.9H249.7V354.6Z" fill="#C15A64"/>
<path d="M249.7 314.6H234.5V323.9H249.7V314.6Z" fill="#C15A64"/>
<path d="M249.7 0.5H234.5V6.79999H249.7V0.5Z" fill="#C15A64"/>
<path d="M249.7 134.2H234.5V143.5H249.7V134.2Z" fill="#C15A64"/>
<path d="M249.7 274.6H234.5V283.9H249.7V274.6Z" fill="#C15A64"/>
<path d="M249.7 294.6H234.5V303.9H249.7V294.6Z" fill="#C15A64"/>
<path d="M249.7 69H234.5V74.2H249.7V69Z" fill="#C15A64"/>
<path d="M249.7 60.6H234.5V63.6H249.7V60.6Z" fill="#C15A64"/>
<path d="M249.7 63.5H234.5V69H249.7V63.5Z" fill="#C15A64"/>
<path d="M249.7 83.5H234.5V94.2H249.7V83.5Z" fill="#C15A64"/>
<path d="M249.7 103.5H234.5V114.2H249.7V103.5Z" fill="#C15A64"/>
<path d="M249.7 123.5H234.5V134.2H249.7V123.5Z" fill="#C15A64"/>
<path d="M249.7 143.5H234.5V154.2H249.7V143.5Z" fill="#C15A64"/>
<path d="M249.7 163.4H234.5V174.1H249.7V163.4Z" fill="#C15A64"/>
<path d="M249.7 183.4H234.5V194.1H249.7V183.4Z" fill="#C15A64"/>
<path d="M249.7 203.4H234.5V214.1H249.7V203.4Z" fill="#C15A64"/>
<path d="M249.7 224H234.5V234.7H249.7V224Z" fill="#C15A64"/>
<path d="M249.7 244H234.5V254.7H249.7V244Z" fill="#C15A64"/>
<path d="M249.7 263.9H234.5V274.6H249.7V263.9Z" fill="#C15A64"/>
<path d="M249.7 283.9H234.5V294.6H249.7V283.9Z" fill="#C15A64"/>
<path d="M249.7 303.9H234.5V314.6H249.7V303.9Z" fill="#C15A64"/>
<path d="M249.7 323.9H234.5V334.6H249.7V323.9Z" fill="#C15A64"/>
<path d="M249.7 343.9H234.5V354.6H249.7V343.9Z" fill="#C15A64"/>
<path d="M249.7 363.8H234.5V370.4H249.7V363.8Z" fill="#C15A64"/>
<path d="M276.9 0.5H260.8V6.79999H276.9V0.5Z" fill="#C15A64"/>
<path d="M276.9 254.7H260.8V264H276.9V254.7Z" fill="#C15A64"/>
<path d="M272.1 354.6H260.8V363.9H272.1V354.6Z" fill="#C15A64"/>
<path d="M276.9 234.7H260.8V244H276.9V234.7Z" fill="#C15A64"/>
<path d="M276.9 214.1H260.8V224H276.9V214.1Z" fill="#C15A64"/>
<path d="M276.9 194.1H260.8V203.4H276.9V194.1Z" fill="#C15A64"/>
<path d="M276.9 334.6H260.8V343.9H276.9V334.6Z" fill="#C15A64"/>
<path d="M276.9 74.2H260.8V83.5H276.9V74.2Z" fill="#C15A64"/>
<path d="M276.9 174.1H260.8V183.4H276.9V174.1Z" fill="#C15A64"/>
<path d="M276.9 94.2H260.8V103.5H276.9V94.2Z" fill="#C15A64"/>
<path d="M276.9 114.2H260.8V123.5H276.9V114.2Z" fill="#C15A64"/>
<path d="M276.9 294.6H260.8V303.9H276.9V294.6Z" fill="#C15A64"/>
<path d="M276.9 314.6H260.8V323.9H276.9V314.6Z" fill="#C15A64"/>
<path d="M276.9 154.2H260.8V163.5H276.9V154.2Z" fill="#C15A64"/>
<path d="M276.9 134.2H260.8V143.5H276.9V134.2Z" fill="#C15A64"/>
<path d="M276.9 274.6H260.8V283.9H276.9V274.6Z" fill="#C15A64"/>
<path d="M276.9 69H260.8V74.2H276.9V69Z" fill="#C15A64"/>
<path d="M276.9 60.6H260.8V63.6H276.9V60.6Z" fill="#C15A64"/>
<path d="M276.9 63.5H260.8V69H276.9V63.5Z" fill="#C15A64"/>
<path d="M276.9 83.5H260.8V94.2H276.9V83.5Z" fill="#C15A64"/>
<path d="M276.9 103.5H260.8V114.2H276.9V103.5Z" fill="#C15A64"/>
<path d="M276.9 123.5H260.8V134.2H276.9V123.5Z" fill="#C15A64"/>
<path d="M276.9 143.5H260.8V154.2H276.9V143.5Z" fill="#C15A64"/>
<path d="M276.9 163.4H260.8V174.1H276.9V163.4Z" fill="#C15A64"/>
<path d="M276.9 183.4H260.8V194.1H276.9V183.4Z" fill="#C15A64"/>
<path d="M276.9 203.4H260.8V214.1H276.9V203.4Z" fill="#C15A64"/>
<path d="M276.9 224H260.8V234.7H276.9V224Z" fill="#C15A64"/>
<path d="M276.9 244H260.8V254.7H276.9V244Z" fill="#C15A64"/>
<path d="M276.9 263.9H260.8V274.6H276.9V263.9Z" fill="#C15A64"/>
<path d="M276.9 283.9H260.8V294.6H276.9V283.9Z" fill="#C15A64"/>
<path d="M276.9 303.9H260.8V314.6H276.9V303.9Z" fill="#C15A64"/>
<path d="M276.9 323.9H260.8V334.6H276.9V323.9Z" fill="#C15A64"/>
<path d="M260.8 354.6H272.2V349H276.9V343.9H260.8V354.6Z" fill="#C15A64"/>
<path d="M272.1 363.8H260.8V370.4H272.1V363.8Z" fill="#C15A64"/>
<path d="M166.9 34.3H132.1V49H166.9V34.3Z" fill="#C15A64"/>
<path d="M124 34.3H101.9V49H124V34.3Z" fill="#C15A64"/>
<path d="M44.5 21.6H35.4V39.4H44.5V21.6Z" fill="#C15A64"/>
<path d="M80.2 21.6H75.2V48.9H80.2V21.6Z" fill="#C15A64"/>
<path d="M234.5 34.3H209.3V49H234.5V34.3Z" fill="#C15A64"/>
<path d="M193.2 34.3H182V49H193.2V34.3Z" fill="#C15A64"/>
<path d="M260.9 34.3H249.7V49H260.9V34.3Z" fill="#C15A64"/>
<path d="M276.9 34.3V48.9H289.1V21.6H283.6V34.3H276.9Z" fill="#C15A64"/>
<path d="M260.9 48.9H249.7V60.6H260.9V48.9Z" fill="#C15A64"/>
<path d="M166.9 48.9H132.1V60.6H166.9V48.9Z" fill="#C15A64"/>
<path d="M234.5 48.9H209.3V60.6H234.5V48.9Z" fill="#C15A64"/>
<path d="M193.2 48.9H182V60.6H193.2V48.9Z" fill="#C15A64"/>
<path d="M66.2 49.2V60.6H80.1V48.9H75.2V49.2H66.2Z" fill="#C15A64"/>
<path d="M289.1 48.9H276.9V60.6H289.1V48.9Z" fill="#C15A64"/>
<path d="M124 48.9H101.9V60.6H124V48.9Z" fill="#C15A64"/>
<path d="M44.5 59.5H35.4V60.6H44.5V59.5Z" fill="#C15A64"/>
<path d="M46.5 39.4V48.9H63.6V21.6H44.5V39.4H46.5Z" fill="#C15A64"/>
<path d="M66.2 49.2H63.6V48.9H46.5V59.5H44.5V60.6H66.2V49.2Z" fill="#C15A64"/>
<path d="M101.9 48.9V34.3H95V21.6H80.1V48.9H101.9Z" fill="#C15A64"/>
<path d="M101.8 48.9H80.1V60.6H101.8V48.9Z" fill="#C15A64"/>
<path d="M132.1 34.3H124V49H132.1V34.3Z" fill="#C15A64"/>
<path d="M132.1 48.9H124V60.6H132.1V48.9Z" fill="#C15A64"/>
<path d="M182.1 34.3H166.9V49H182.1V34.3Z" fill="#C15A64"/>
<path d="M182.1 48.9H166.9V60.6H182.1V48.9Z" fill="#C15A64"/>
<path d="M209.3 34.3H193.2V49H209.3V34.3Z" fill="#C15A64"/>
<path d="M209.3 48.9H193.2V60.6H209.3V48.9Z" fill="#C15A64"/>
<path d="M249.7 34.3H234.5V49H249.7V34.3Z" fill="#C15A64"/>
<path d="M249.7 48.9H234.5V60.6H249.7V48.9Z" fill="#C15A64"/>
<path d="M276.9 34.3H260.8V49H276.9V34.3Z" fill="#C15A64"/>
<path d="M276.9 48.9H260.8V60.6H276.9V48.9Z" fill="#C15A64"/>
<path d="M75.2 7.29999H66.2V21.6H75.2V7.29999Z" fill="#C15A64"/>
<path d="M66.2 7.29999H63.6V21.6H66.2V7.29999Z" fill="#C15A64"/>
<path d="M75.2 21.6H66.2V48.9H75.2V21.6Z" fill="#C15A64"/>
<path d="M75.2 48.9H66.2V49.1H75.2V48.9Z" fill="#C15A64"/>
<path d="M66.2 21.6H63.6V48.9H66.2V21.6Z" fill="#C15A64"/>
<path d="M66.2 48.9H63.6V49.1H66.2V48.9Z" fill="#C15A64"/>
<path d="M234.5 6.79999H209.3V21.7H234.5V6.79999Z" fill="#C15A64"/>
<path d="M193.2 6.79999H182V21.7H193.2V6.79999Z" fill="#C15A64"/>
<path d="M283.6 6.79999H276.9V21.7H283.6V6.79999Z" fill="#C15A64"/>
<path d="M260.9 6.79999H249.7V21.7H260.9V6.79999Z" fill="#C15A64"/>
<path d="M166.9 6.79999H132.1V21.7H166.9V6.79999Z" fill="#C15A64"/>
<path d="M124 6.79999H101.9V21.7H124V6.79999Z" fill="#C15A64"/>
<path d="M101.8 6.79999H95V21.7H101.8V6.79999Z" fill="#C15A64"/>
<path d="M132.1 6.79999H124V21.7H132.1V6.79999Z" fill="#C15A64"/>
<path d="M182.1 6.79999H166.9V21.7H182.1V6.79999Z" fill="#C15A64"/>
<path d="M209.3 6.79999H193.2V21.7H209.3V6.79999Z" fill="#C15A64"/>
<path d="M249.7 6.79999H234.5V21.7H249.7V6.79999Z" fill="#C15A64"/>
<path d="M276.9 6.79999H260.8V21.7H276.9V6.79999Z" fill="#C15A64"/>
<path d="M234.5 21.6H209.3V34.2H234.5V21.6Z" fill="#C15A64"/>
<path d="M124 21.6H101.9V34.2H124V21.6Z" fill="#C15A64"/>
<path d="M166.9 21.6H132.1V34.2H166.9V21.6Z" fill="#C15A64"/>
<path d="M193.2 21.6H182V34.2H193.2V21.6Z" fill="#C15A64"/>
<path d="M283.6 21.6H276.9V34.2H283.6V21.6Z" fill="#C15A64"/>
<path d="M260.9 21.6H249.7V34.2H260.9V21.6Z" fill="#C15A64"/>
<path d="M101.8 21.6H95V34.2H101.8V21.6Z" fill="#C15A64"/>
<path d="M132.1 21.6H124V34.2H132.1V21.6Z" fill="#C15A64"/>
<path d="M182.1 21.6H166.9V34.2H182.1V21.6Z" fill="#C15A64"/>
<path d="M209.3 21.6H193.2V34.2H209.3V21.6Z" fill="#C15A64"/>
<path d="M249.7 21.6H234.5V34.2H249.7V21.6Z" fill="#C15A64"/>
<path d="M276.9 21.6H260.8V34.2H276.9V21.6Z" fill="#C15A64"/>
<path d="M35.4 39.4H10.1V48.9H35.4V39.4Z" fill="#C15A64"/>
<path d="M35.4 48.9H10.1V59.4H35.4V48.9Z" fill="#C15A64"/>
<path d="M44.5 39.4H35.4V48.9H44.5V39.4Z" fill="#C15A64"/>
<path d="M44.5 48.9H35.4V59.4H44.5V48.9Z" fill="#C15A64"/>
<path d="M46.5 39.4H44.5V48.9H46.5V39.4Z" fill="#C15A64"/>
<path d="M46.5 48.9H44.5V59.4H46.5V48.9Z" fill="#C15A64"/>
<path d="M34.7 114.2H8.19995V123.5H34.7V114.2Z" fill="#C15A64"/>
<path d="M34.7 111.4H8.19995V114.2H34.7V111.4Z" fill="#C15A64"/>
<path d="M34.7 123.5H8.19995V127.5H34.7V123.5Z" fill="#C15A64"/>
<path d="M8.19995 114.2H3.09998V123.5H8.19995V114.2Z" fill="#C15A64"/>
<path d="M8.19995 111.4H3.09998V114.2H8.19995V111.4Z" fill="#C15A64"/>
<path d="M8.19995 123.5H3.09998V127.5H8.19995V123.5Z" fill="#C15A64"/>
<path d="M166.9 374.5H132.1V397.1H166.9V374.5Z" fill="#C15A64"/>
<path d="M124 374.5H101.9V397.1H124V374.5Z" fill="#C15A64"/>
<path d="M289.1 375.8H276.9V397.2H289.1V375.8Z" fill="#C15A64"/>
<path d="M193.2 374.5H182V397.1H193.2V374.5Z" fill="#C15A64"/>
<path d="M260.9 374.5H249.7V397.1H260.9V374.5Z" fill="#C15A64"/>
<path d="M234.5 374.5H209.3V397.1H234.5V374.5Z" fill="#C15A64"/>
<path d="M80.1 374.5H66.2V397.1H80.1V374.5Z" fill="#C15A64"/>
<path d="M44.5 374.5H8.19995V397.1H44.5V374.5Z" fill="#C15A64"/>
<path d="M166.9 370.4H132.1V374.5H166.9V370.4Z" fill="#C15A64"/>
<path d="M44.5 370.4H8.19995V374.5H44.5V370.4Z" fill="#C15A64"/>
<path d="M193.2 370.4H182V374.5H193.2V370.4Z" fill="#C15A64"/>
<path d="M124 370.4H101.9V374.5H124V370.4Z" fill="#C15A64"/>
<path d="M234.5 370.4H209.3V374.5H234.5V370.4Z" fill="#C15A64"/>
<path d="M260.9 370.4H249.7V374.5H260.9V370.4Z" fill="#C15A64"/>
<path d="M80.1 370.4H66.2V374.5H80.1V370.4Z" fill="#C15A64"/>
<path d="M8.19995 374.5H0.0999756V397.1H8.19995V374.5Z" fill="#C15A64"/>
<path d="M8.19995 370.4H0.0999756V374.5H8.19995V370.4Z" fill="#C15A64"/>
<path d="M66.2 374.5H44.5V397.1H66.2V374.5Z" fill="#C15A64"/>
<path d="M66.2 370.4H44.5V374.5H66.2V370.4Z" fill="#C15A64"/>
<path d="M101.8 374.5H80.1V397.1H101.8V374.5Z" fill="#C15A64"/>
<path d="M101.8 370.4H80.1V374.5H101.8V370.4Z" fill="#C15A64"/>
<path d="M132.1 374.5H124V397.1H132.1V374.5Z" fill="#C15A64"/>
<path d="M132.1 370.4H124V374.5H132.1V370.4Z" fill="#C15A64"/>
<path d="M182.1 374.5H166.9V397.1H182.1V374.5Z" fill="#C15A64"/>
<path d="M182.1 370.4H166.9V374.5H182.1V370.4Z" fill="#C15A64"/>
<path d="M209.3 374.5H193.2V397.1H209.3V374.5Z" fill="#C15A64"/>
<path d="M209.3 370.4H193.2V374.5H209.3V370.4Z" fill="#C15A64"/>
<path d="M249.7 374.5H234.5V397.1H249.7V374.5Z" fill="#C15A64"/>
<path d="M249.7 370.4H234.5V374.5H249.7V370.4Z" fill="#C15A64"/>
<path d="M272.2 375.8V374.5H260.8V397.2H276.9V375.8H272.2Z" fill="#C15A64"/>
<path d="M272.1 370.4H260.8V374.5H272.1V370.4Z" fill="#C15A64"/>
<path d="M289.1 354.6H276.9V363.9H289.1V354.6Z" fill="#C15A64"/>
<path d="M289.1 349H276.9V354.5H289.1V349Z" fill="#C15A64"/>
<path d="M289.1 363.8H276.9V370.4H289.1V363.8Z" fill="#C15A64"/>
<path d="M276.9 354.6H272.2V363.9H276.9V354.6Z" fill="#C15A64"/>
<path d="M276.9 349H272.2V354.5H276.9V349Z" fill="#C15A64"/>
<path d="M276.9 363.8H272.2V370.4H276.9V363.8Z" fill="#C15A64"/>
<path d="M289.1 374.5H276.9V375.7H289.1V374.5Z" fill="#C15A64"/>
<path d="M289.1 370.4H276.9V374.5H289.1V370.4Z" fill="#C15A64"/>
<path d="M276.9 374.5H272.2V375.7H276.9V374.5Z" fill="#C15A64"/>
<path d="M276.9 370.4H272.2V374.5H276.9V370.4Z" fill="#C15A64"/>
<path d="M72.9 214.1H66.2V224H72.9V214.1Z" fill="#C15A64"/>
<path d="M72.9 208.4H66.2V214.1H72.9V208.4Z" fill="#C15A64"/>
<path d="M72.9 224H66.2V232.9H72.9V224Z" fill="#C15A64"/>
<path d="M66.3 214.1H60.5V224H66.3V214.1Z" fill="#C15A64"/>
<path d="M66.3 208.4H60.5V214.1H66.3V208.4Z" fill="#C15A64"/>
<path d="M66.3 224H60.5V232.9H66.3V224Z" fill="#C15A64"/>
<path d="M38.4 234.7H8.19995V244H38.4V234.7Z" fill="#C15A64"/>
<path d="M38.4 232.1H8.19995V234.7H38.4V232.1Z" fill="#C15A64"/>
<path d="M38.4 244H8.19995V248.2H38.4V244Z" fill="#C15A64"/>
<path d="M8.19995 234.7H5.30005V244H8.19995V234.7Z" fill="#C15A64"/>
<path d="M8.19995 232.1H5.30005V234.7H8.19995V232.1Z" fill="#C15A64"/>
<path d="M8.19995 244H5.30005V248.2H8.19995V244Z" fill="#C15A64"/>
<path d="M163.4 134.2H144.3V143.5H163.4V134.2Z" fill="#C15A64"/>
<path d="M163.4 131.3H144.3V134.2H163.4V131.3Z" fill="#C15A64"/>
<path d="M163.4 143.5H144.3V152H163.4V143.5Z" fill="#C15A64"/>
</svg>
