<svg width="222" height="442" viewBox="0 0 222 442" fill="none" xmlns="http://www.w3.org/2000/svg">
<path d="M209.6 75.7H8.40002V80.4H209.6V75.7Z" fill="#C15A64"/>
<path d="M221.6 94.3H8.40002V99H221.6V94.3Z" fill="#C15A64"/>
<path d="M209.6 112.9H8.40002V117.6H209.6V112.9Z" fill="#C15A64"/>
<path d="M209.6 131.4H4.20001V136.1H209.6V131.4Z" fill="#C15A64"/>
<path d="M209.6 150H8.40002V154.7H209.6V150Z" fill="#C15A64"/>
<path d="M215.7 168.6H8.40002V173.3H215.7V168.6Z" fill="#C15A64"/>
<path d="M205.3 187.2H8.40002V191.9H205.3V187.2Z" fill="#C15A64"/>
<path d="M216.4 205.7H3V210.4H216.4V205.7Z" fill="#C15A64"/>
<path d="M209.6 224.3H8.40002V229H209.6V224.3Z" fill="#C15A64"/>
<path d="M209.6 242.9H0V247.6H209.6V242.9Z" fill="#C15A64"/>
<path d="M209.6 261.5H6.90002V266.2H209.6V261.5Z" fill="#C15A64"/>
<path d="M209.6 280H8.40002V284.7H209.6V280Z" fill="#C15A64"/>
<path d="M209.6 298.6H8.40002V303.3H209.6V298.6Z" fill="#C15A64"/>
<path d="M209.6 317.2H1.29999V321.9H209.6V317.2Z" fill="#C15A64"/>
<path d="M209.6 335.8H8.40002V340.5H209.6V335.8Z" fill="#C15A64"/>
<path d="M218 354.3H1.90002V359H218V354.3Z" fill="#C15A64"/>
<path d="M209.6 372.9H8.40002V377.6H209.6V372.9Z" fill="#C15A64"/>
<path d="M215.3 391.5H8.40002V396.2H215.3V391.5Z" fill="#C15A64"/>
<path d="M209.6 410.1H8.40002V414.8H209.6V410.1Z" fill="#C15A64"/>
<path d="M33.7 36.8H29.8V439.5H33.7V36.8Z" fill="#C15A64"/>
<path d="M199.9 39.2H197.6V439.5H199.9V39.2Z" fill="#C15A64"/>
<path d="M182.6 39.2H180.3V439.5H182.6V39.2Z" fill="#C15A64"/>
<path d="M173.4 39.2H166.9V439.5H173.4V39.2Z" fill="#C15A64"/>
<path d="M134.6 39.2H128.1V439.5H134.6V39.2Z" fill="#C15A64"/>
<path d="M69.2 39.2H62.7V439.5H69.2V39.2Z" fill="#C15A64"/>
<path d="M53.8 39.2H47.3V439.5H53.8V39.2Z" fill="#C15A64"/>
<path d="M22.6 39.2H19.3V439.5H22.6V39.2Z" fill="#C15A64"/>
<path d="M12.8 39.2H9.5V439.5H12.8V39.2Z" fill="#C15A64"/>
<path d="M207.9 39.2H204.6V439.5H207.9V39.2Z" fill="#C15A64"/>
<path d="M207.4 58.4H11.2V67.8H207.4V58.4Z" fill="#C15A64"/>
<path d="M207.4 35.8H9.5V51.1H207.4V35.8Z" fill="#C15A64"/>
<path d="M133 245.4H66V436.4H133V245.4Z" fill="#C15A64"/>
<path d="M170 228.4H128.1V439.5H170V228.4Z" fill="#C15A64"/>
<path d="M52 244.9H30.5V263.9H52V244.9Z" fill="#C15A64"/>
<path d="M197.3 27.7H29.3V42.4H197.3V27.7Z" fill="#C15A64"/>
<path d="M163.3 20.4H62.7V39.2H163.3V20.4Z" fill="#C15A64"/>
<path d="M22 8.89999H17V44.4H22V8.89999Z" fill="#C15A64"/>
<path d="M49.5 20.9H46V33.9H49.5V20.9Z" fill="#C15A64"/>
<path d="M186 0.399994H182V40.9H186V0.399994Z" fill="#C15A64"/>
<path d="M202 16.4H198.5V40.9H202V16.4Z" fill="#C15A64"/>
<path d="M130 172.4H79.5V190.9H130V172.4Z" fill="#C15A64"/>
<path d="M33.9 96.5H22.1V115H33.9V96.5Z" fill="#C15A64"/>
<path d="M44.9 79H33.1V97.5H44.9V79Z" fill="#C15A64"/>
<path d="M178.2 139.6H166.4V158.1H178.2V139.6Z" fill="#C15A64"/>
<path d="M200.5 188.4H170.5V211.4H200.5V188.4Z" fill="#C15A64"/>
<path d="M196.5 300.4H182V321.4H196.5V300.4Z" fill="#C15A64"/>
<path d="M52 318.9H21V439.4H52V318.9Z" fill="#C15A64"/>
<path d="M90.5 391.9H49V439.9H90.5V391.9Z" fill="#C15A64"/>
<path d="M208.5 319.4H152V441.9H208.5V319.4Z" fill="#C15A64"/>
<path d="M199 282.4H192V301.4H199V282.4Z" fill="#C15A64"/>
<path d="M150.7 135.4H132.1V152.9H150.7V135.4Z" fill="#C15A64"/>
</svg>
