<svg width="240" height="450" viewBox="0 0 240 450" fill="none" xmlns="http://www.w3.org/2000/svg">
<path d="M20.7 44.7H14.2V449.4H20.7V44.7Z" fill="#C15A64"/>
<path d="M216.4 38H14.5V44.7H216.4V38Z" fill="#C15A64"/>
<path d="M45.2 44.7H38.7V449.4H45.2V44.7Z" fill="#C15A64"/>
<path d="M57.6 44.7H54V449.4H57.6V44.7Z" fill="#C15A64"/>
<path d="M204.5 44.7H200.9V449.4H204.5V44.7Z" fill="#C15A64"/>
<path d="M178 44.7H174.4V449.4H178V44.7Z" fill="#C15A64"/>
<path d="M69.7 44.7H63.2V449.4H69.7V44.7Z" fill="#C15A64"/>
<path d="M163.3 44.7H68.2V449.4H163.3V44.7Z" fill="#C15A64"/>
<path d="M151.1 430.7V414.2H17.4V449.4H214.6V430.7H151.1Z" fill="#C15A64"/>
<path d="M118.7 44.7H112.2V449.4H118.7V44.7Z" fill="#C15A64"/>
<path d="M143.2 44.7H136.7V449.4H143.2V44.7Z" fill="#C15A64"/>
<path d="M167.6 44.7H161.1V449.4H167.6V44.7Z" fill="#C15A64"/>
<path d="M192.1 44.7H185.6V449.4H192.1V44.7Z" fill="#C15A64"/>
<path d="M216.6 44.7H210.1V449.4H216.6V44.7Z" fill="#C15A64"/>
<path d="M75 30.7H36.5V41H75V30.7Z" fill="#C15A64"/>
<path d="M169.3 18.7H69.6V42.3H169.3V18.7Z" fill="#C15A64"/>
<path d="M199.9 21.2H182.5V41.1H199.9V21.2Z" fill="#C15A64"/>
<path d="M190.3 33.6H166V39.9H190.3V33.6Z" fill="#C15A64"/>
<path d="M196.6 17H186.4V25.6H196.6V17Z" fill="#C15A64"/>
<path d="M213.7 33H193V38.8H213.7V33Z" fill="#C15A64"/>
<path d="M210.7 28.2H197.3V35.1H210.7V28.2Z" fill="#C15A64"/>
<path d="M65.5 27.2H45.1V34.4H65.5V27.2Z" fill="#C15A64"/>
<path d="M146.5 0.5H94.4V26.6H146.5V0.5Z" fill="#C15A64"/>
<path d="M186.8 29.3H166V37H186.8V29.3Z" fill="#C15A64"/>
<path d="M226.6 51.8H9.39996V55.4H226.6V51.8Z" fill="#C15A64"/>
<path d="M239.6 66.3H9.39996V69.9H239.6V66.3Z" fill="#C15A64"/>
<path d="M226.6 80.8H9.39996V84.4H226.6V80.8Z" fill="#C15A64"/>
<path d="M226.5 95.2H4.79999V98.8H226.5V95.2Z" fill="#C15A64"/>
<path d="M226.6 109.7H9.39996V113.3H226.6V109.7Z" fill="#C15A64"/>
<path d="M233.2 124.2H9.39996V127.8H233.2V124.2Z" fill="#C15A64"/>
<path d="M222 138.6H9.39996V142.2H222V138.6Z" fill="#C15A64"/>
<path d="M234 153.1H3.59998V156.7H234V153.1Z" fill="#C15A64"/>
<path d="M226.6 167.6H9.39996V171.2H226.6V167.6Z" fill="#C15A64"/>
<path d="M226.6 182H0.299988V185.6H226.6V182Z" fill="#C15A64"/>
<path d="M226.5 196.5H7.70001V200.1H226.5V196.5Z" fill="#C15A64"/>
<path d="M226.6 211H9.39996V214.6H226.6V211Z" fill="#C15A64"/>
<path d="M226.6 225.4H9.39996V229H226.6V225.4Z" fill="#C15A64"/>
<path d="M226.6 239.9H1.70001V243.5H226.6V239.9Z" fill="#C15A64"/>
<path d="M226.6 254.4H9.39996V258H226.6V254.4Z" fill="#C15A64"/>
<path d="M235.7 268.8H2.39996V272.4H235.7V268.8Z" fill="#C15A64"/>
<path d="M226.6 283.3H9.39996V286.9H226.6V283.3Z" fill="#C15A64"/>
<path d="M232.8 297.8H9.39996V301.4H232.8V297.8Z" fill="#C15A64"/>
<path d="M226.6 312.2H9.39996V315.8H226.6V312.2Z" fill="#C15A64"/>
<path d="M223 326.7H9.39996V330.3H223V326.7Z" fill="#C15A64"/>
<path d="M234 341.1H4V344.7H234V341.1Z" fill="#C15A64"/>
<path d="M226.6 355.6H9.39996V359.2H226.6V355.6Z" fill="#C15A64"/>
<path d="M226.6 370.1H9.39996V373.7H226.6V370.1Z" fill="#C15A64"/>
<path d="M226.6 384.5H9.39996V388.1H226.6V384.5Z" fill="#C15A64"/>
<path d="M226.6 399H9.39996V402.6H226.6V399Z" fill="#C15A64"/>
<path d="M226.6 413.5H9.39996V417.1H226.6V413.5Z" fill="#C15A64"/>
<path d="M226.6 427.9H9.39996V431.5H226.6V427.9Z" fill="#C15A64"/>
<path d="M56.5 198.8H42.4V212.3H56.5V198.8Z" fill="#C15A64"/>
<path d="M68.9 227.2H55.1V242.1H68.9V227.2Z" fill="#C15A64"/>
<path d="M55.6 256.7H43.2V271.3H55.6V256.7Z" fill="#C15A64"/>
<path d="M176.7 96H162.2V111.3H176.7V96Z" fill="#C15A64"/>
<path d="M188.3 67.5H177.5V82H188.3V67.5Z" fill="#C15A64"/>
<path d="M204 127.1H189.9V142H204V127.1Z" fill="#C15A64"/>
<path d="M202.8 199.5H187.5V213.6H202.8V199.5Z" fill="#C15A64"/>
<path d="M203.6 183.3H157.3V197H203.6V183.3Z" fill="#C15A64"/>
<path d="M190.4 283.5H157.7V313.7H190.4V283.5Z" fill="#C15A64"/>
<path d="M187.9 271H176.7V290.4H187.9V271Z" fill="#C15A64"/>
<path d="M77.4 299.2H38.5V314.5H77.4V299.2Z" fill="#C15A64"/>
<path d="M71.2 285.9H55.5V305.3H71.2V285.9Z" fill="#C15A64"/>
<path d="M92.8 398.7H42.1V416.1H92.8V398.7Z" fill="#C15A64"/>
<path d="M76.3 370.1H57V402.9H76.3V370.1Z" fill="#C15A64"/>
<path d="M55.9 359.3H42.4V371.7H55.9V359.3Z" fill="#C15A64"/>
<path d="M206.1 400.1H136.6V441.1H206.1V400.1Z" fill="#C15A64"/>
<path d="M55.6 111.8H43.2V125.9H55.6V111.8Z" fill="#C15A64"/>
<path d="M33.8 227.7H18.1V242H33.8V227.7Z" fill="#C15A64"/>
<path d="M35.4 169.3H29.1V184.7H35.4V169.3Z" fill="#C15A64"/>
<path d="M29.9 67.5H16.2V83H29.9V67.5Z" fill="#C15A64"/>
<path d="M26.4 329H18.1V343.1H26.4V329Z" fill="#C15A64"/>
<path d="M199.1 344.1H196.3V358.2H199.1V344.1Z" fill="#C15A64"/>
<path d="M202.9 247.3H189.4V256.1H202.9V247.3Z" fill="#C15A64"/>
</svg>
