<svg width="1351" height="298" viewBox="0 0 1351 298" fill="none" xmlns="http://www.w3.org/2000/svg">
<path opacity="0.66" d="M1400 297.1V52.9H1381.8V18.4H1368.3V1.79999H1305.4V18.4H1291.9V82.9H1271.5V50.9H1199.4V132.5H1188.3V90L1153.2 71.1V30H1123.6V110.7H1097.1V80.1H1076.1V42.1H1025V72.5H987.5V96L946.6 84.7V60.3H894.4V114.1H858.7V92.5H849.9V49.1L814.6 60.3V92.5H795.2V62.8H767.4V42.1H714.9V71.7L663.5 57.4V26.8H598V94.4H553.2V67.2H542.2V12.8L497.9 26.8V67.2H473.5V29.9H396.9V51.1H375.5V16.5H361.3V0H295.1V16.5H280.8V81H259.4V49H183.6V130.6H171.9V88.2L134.9 69.2V28.1H103.8V108.9H75.9V78.3H53.8V40.2H0V297.1H1400Z" fill="#DD6C7D"/>
</svg>
