<svg width="285" height="201" viewBox="0 0 285 201" fill="none" xmlns="http://www.w3.org/2000/svg">
<path d="M219.9 87.9L237.5 83.7L237.6 20.1L116.9 10.7L102.6 103.8L119.6 105.1L131.3 28.9L220.5 35.8L219.9 87.9Z" fill="#95485D"/>
<path d="M238.1 11.1L103.1 0.599976L106.9 16.4L236.9 26.6L238.1 11.1Z" fill="#95485D"/>
<path d="M120.4 138C104.9 136.8 91.3 148.4 90.1 163.9C88.9 179.4 100.5 193 116 194.2C131.5 195.4 145.1 183.8 146.3 168.3C147.5 152.8 135.9 139.2 120.4 138Z" fill="#95485D"/>
<path d="M196.2 143.9C180.7 142.7 167.1 154.3 165.9 169.8C164.7 185.3 176.3 198.9 191.8 200.1C207.3 201.3 220.9 189.7 222.1 174.2C223.3 158.7 211.7 145.1 196.2 143.9Z" fill="#95485D"/>
<path d="M269 56L88.2 95.3L61.8 152.1L78 167L243.7 179.2L275.8 169.3L284.5 57.2L269 56ZM240.1 116.8L161.1 110.6L162.1 104.7L255.8 85.9L240.1 116.8Z" fill="#95485D"/>
<path d="M78 167L71.2 187.1L0.599976 181.6L62.1 124L78.1 136.7L78 167Z" fill="#95485D"/>
<path d="M258.108 90.0618L257.566 87.3149L155.64 107.461L156.183 110.208L258.108 90.0618Z" fill="#95485D"/>
<path d="M140.367 26.3566L136.678 26.0692L131.582 91.4724L135.271 91.7598L140.367 26.3566Z" fill="#95485D"/>
<path d="M150.2 27.1513L146.511 26.864L141.548 90.5722L145.237 90.8596L150.2 27.1513Z" fill="#95485D"/>
<path d="M160.033 27.946L156.345 27.6586L151.505 89.7717L155.194 90.059L160.033 27.946Z" fill="#95485D"/>
<path d="M169.971 28.6473L166.282 28.36L161.577 88.7782L165.266 89.0655L169.971 28.6473Z" fill="#95485D"/>
<path d="M179.808 29.4433L176.119 29.1559L171.544 87.8791L175.233 88.1665L179.808 29.4433Z" fill="#95485D"/>
<path d="M189.641 30.238L185.952 29.9506L181.501 87.0786L185.19 87.366L189.641 30.238Z" fill="#95485D"/>
<path d="M199.574 31.0404L195.885 30.753L191.567 86.1862L195.256 86.4736L199.574 31.0404Z" fill="#95485D"/>
<path d="M209.415 31.7353L205.726 31.4479L201.54 85.1863L205.229 85.4737L209.415 31.7353Z" fill="#95485D"/>
<path d="M219.345 32.5364L215.656 32.2491L211.596 84.3922L215.284 84.6795L219.345 32.5364Z" fill="#95485D"/>
<path d="M124 76L123.5 79.7L220 87.2V83.5L124 76Z" fill="#95485D"/>
<path d="M220.1 73.5L125.6 66.2L125 69.9L220.1 77.3V73.5Z" fill="#95485D"/>
<path d="M220.2 63.6L127.1 56.4L126.5 60.1L220.2 67.4V63.6Z" fill="#95485D"/>
<path d="M220.3 53.7L128.6 46.5L128 50.2L220.3 57.4V53.7Z" fill="#95485D"/>
<path d="M220.4 43.8L130.1 36.7L129.5 40.4L220.4 47.5V43.8Z" fill="#95485D"/>
</svg>
