<svg width="221" height="156" viewBox="0 0 221 156" fill="none" xmlns="http://www.w3.org/2000/svg">
<path d="M207.1 126.9L179.4 125.2L179.8 118.9L202.1 120.3C209.2 120.7 215.2 115.4 215.7 108.3L213.7 82.2L170.1 79.6L164.5 88.1L155.5 87.6C155.5 87.6 157.7 67.2 145.1 66.2L133.4 65.5L116.2 34C116.2 34 113.1 29.1 112.9 26C112.7 22.9 111.9 22.1 110.4 21.6C109.6 21.4 108.9 21.6 108.3 22.2L101.2 20.3L101.3 19.9L99 19.3L98.9 19.7L88.2 16.8L88.3 16.4L86 15.8L85.9 16.2L73.4 12.8L73.6 12.3L71.3 11.7L71.1 12.3L67.6 11.3L67.3 12.4L43.6 6.29999L43.7 4.40002C43.7 4.40002 39.8 -3.79998 24.1 3.40002L23.9 7.29999C23.9 7.29999 24.1 7.50002 24.5 7.90002L24.4 8.29999L23.9 8.09998L23.1 10.4L23.6 10.6L20 20.9L19.5 20.7L18.7 23L19.2 23.2L16 32.4L15.5 32.2L14.7 34.5L15.2 34.7L14.6 36.4L15.7 36.8L7.79998 59.6L1.89998 62.6C1.89998 62.6 -0.800012 67 2.99999 67.6L6.79998 84.8L2.59999 96.9C2.59999 96.9 4.79999 107.5 14.5 106.1C24.2 104.7 51.3 96.2 51.3 96.2C51.3 96.2 30.1 84.7 24.2 73.6L43.3 32.2L96.7 47.3L112.9 70.1C107 74.7 101.2 83.5 98.5 100.3C97.3 107.8 102.8 114.7 110.4 115.1L137.8 116.8L137.4 123.1L99.5 120.8C92 120.3 85.4 126.1 85 133.7L84.9 134.6C84.4 142.1 90.2 148.7 97.8 149.1L205.6 155.6C213.1 156.1 219.7 150.3 220.1 142.7L220.2 141.8C220.5 133.9 214.7 127.3 207.1 126.9ZM16 74.3L11.2 76.6L8.79998 66.4L18.5 61.4C17.1 68.8 16 74.3 16 74.3ZM27.3 17.5C26.5 20.9 23.1 38.2 20.3 52.8L8.99999 58.5L16.6 36.7L17.6 37L18.2 35.3L18.7 35.5L19.5 33.2L19 33L22.2 23.8L22.7 24L23.5 21.7L23 21.5L26.6 11.2L26.8 11.3C27.4 13.1 27.8 15.2 27.3 17.5ZM45.1 17.9L43.1 13.8L43.5 7L67 13.1L66.7 14.1L70.2 15.1L70 15.5L72.3 16.1L72.4 15.6L84.9 19L84.7 19.6L87 20.2L87.2 19.6L97.9 22.5L97.7 23.1L100 23.7L100.2 23.1L105.8 24.6C104.7 25.2 102.9 25.6 101 25.7C100.1 25.5 99.2 25.4 98.3 25.2L50.7 21.6L45.1 17.9Z" fill="#C15A64"/>
</svg>
