<svg width="354" height="194" viewBox="0 0 354 194" fill="none" xmlns="http://www.w3.org/2000/svg">
<path d="M348 138V100L337.7 62.5L334.7 62.7C291.2 -30.2 176.4 8.09998 176.4 8.09998C158.6 19.7 152.2 54.4 150.1 72.1L128.2 73.2L120.5 75.5L64.4 136.4L62.6 132.1L0.0999756 183.5C0.0999756 183.5 61.5 207.4 94.5 183.1L85.4 161.4L102.9 150.9C102.9 151.3 102.9 151.8 102.9 152.2C102.9 173.6 120.2 190.9 141.6 190.9C154.9 190.9 166.7 184.1 173.7 173.9H220C227 184.2 238.7 190.9 252.1 190.9C265.5 190.9 277.2 184.1 284.2 173.9H312.3L353.7 160.3V138.1H348V138ZM303.8 46.1C308.4 51.2 312.5 57 316.1 63.5L313 63.7C305.8 49.6 292.8 39.6 282.5 33.5C277.2 30.3 272.1 27.9 267.9 26.1V23C272.6 24.6 277.1 26.5 281.3 28.7C289.8 33.1 297.4 39 303.8 46.1ZM170.5 54.4H172.8V60.1H169.3C169.7 58.3 170 56.4 170.5 54.6C170.5 54.5 170.5 54.5 170.5 54.4ZM176.2 36.2H180.4V41.9H176.1V36.3C176.2 36.3 176.2 36.3 176.2 36.2ZM177.7 32.9C178.6 31.1 179.5 29.5 180.4 28.1V32.9H177.7ZM244.9 67.2V63.5H249.4V67L244.9 67.2ZM249.4 51H244.9V45.3H249.4V51ZM206.7 54.4H211V60.1H206.7V54.4ZM203.4 60.1H199.1V54.4H203.4V60.1ZM214.3 54.4H218.6V60.1H214.3V54.4ZM226.3 51H222V45.3H226.3V51ZM229.6 45.3H233.9V51H229.6V45.3ZM218.6 51H214.3V45.3H218.6V51ZM222 54.4H226.3V60.1H222V54.4ZM229.6 54.4H233.9V60.1H229.6V54.4ZM237.3 54.4H241.6V60.1H237.3V54.4ZM237.3 51V45.3H241.6V51H237.3ZM249.4 42H244.9V36.3H249.4V42ZM241.5 42H237.2V36.3H241.5V42ZM233.9 42H229.6V36.3H233.9V42ZM226.3 42H222V36.3H226.3V42ZM218.6 42H214.3V36.3H218.6V42ZM211 42H206.7V36.3H211V42ZM211 45.3V51H206.7V45.3H211ZM203.4 51H199.1V45.3H203.4V51ZM195.7 51H191.4V45.3H195.7V51ZM195.7 54.4V60.1H191.4V54.4H195.7ZM195.7 63.5V69.7L191.4 69.9V63.5H195.7ZM199.1 63.5H203.4V69.4L199.1 69.6V63.5ZM206.7 63.5H211V69L206.7 69.2V63.5ZM214.3 63.5H218.6V68.6L214.3 68.8V63.5ZM222 63.5H226.3V68.2L222 68.4V63.5ZM229.6 63.5H233.9V67.8L229.6 68V63.5ZM237.3 63.5H241.6V67.4L237.3 67.6V63.5ZM244.9 60.1V54.4H249.4V60.1H244.9ZM249.4 32.9H244.9V27.2H249.4V32.9ZM241.5 32.9H237.2V27.2H241.5V32.9ZM233.9 32.9H229.6V27.2H233.9V32.9ZM226.3 32.9H222V27.2H226.3V32.9ZM218.6 32.9H214.3V27.2H218.6V32.9ZM211 32.9H206.7V27.2H211V32.9ZM203.4 32.9H199.1V27.2H203.4V32.9ZM203.4 36.2V41.9H199.1V36.2H203.4ZM195.7 42H191.4V36.3H195.7V42ZM188.1 42H183.8V36.3H188.1V42ZM180.4 45.3V51H176.1V45.3H180.4ZM183.8 45.3H188.1V51H183.8V45.3ZM188.1 54.4V60.1H183.8V54.4H188.1ZM188.1 63.5V70.1L183.8 70.3V63.5H188.1ZM267.9 66V51H268.9V46.8H267.9V29.2C280.3 34.7 300.2 45.9 309.9 63.9L267.9 66ZM265.3 46.8H264.7V51H265.3V66.1L260.4 66.3V26.1C261.7 26.6 263.4 27.2 265.3 28V46.8ZM260.4 23.1V20.8C262.1 21.2 263.7 21.7 265.3 22.2V25C263.3 24.2 261.6 23.6 260.4 23.1ZM249.4 23.8H244.9V18.1C246.4 18.3 247.9 18.5 249.4 18.7V23.8ZM241.5 23.8H237.2V17.5C238.6 17.6 240.1 17.7 241.5 17.8V23.8ZM233.9 23.8H229.6V17.2C231 17.2 232.5 17.2 233.9 17.3V23.8ZM226.3 23.8H222V17.4C223.4 17.3 224.8 17.3 226.3 17.3V23.8ZM218.6 23.8H214.3V18C215.7 17.9 217.1 17.8 218.6 17.7V23.8ZM211 23.8H206.7V18.9C208.1 18.7 209.5 18.5 211 18.4V23.8ZM203.4 23.8H199.1V20.1C200.5 19.9 201.9 19.6 203.4 19.4V23.8ZM195.7 23.8H191.4V21.6C192.7 21.3 194.1 21 195.7 20.7V23.8ZM195.7 27.2V32.9H191.4V27.2H195.7ZM188.1 32.9H183.8V27.2H188.1V32.9ZM172.8 51H171.3C171.8 49.2 172.3 47.4 172.8 45.7V51ZM176.2 54.4H180.5V60.1H176.2V54.4ZM180.4 63.5V70.5L176.1 70.7V63.5H180.4ZM188.1 22.5V23.9H183.9C184 23.8 184.1 23.7 184.2 23.6C185.3 23.2 186.5 22.9 188.1 22.5ZM167.6 70.6C167.9 68.4 168.3 66 168.7 63.5H172.8V70.9L169.1 71.1L167.6 70.6ZM65.7 139.5L121.3 78.5H124L109.5 96.6L66.6 141.7L65.7 139.5ZM83.8 157.8L82.7 155.3L103.8 143.2C103.5 144.5 103.3 145.8 103.1 147.1L83.8 157.8Z" fill="#95485D"/>
</svg>
